<svg width="1012" height="377" viewBox="0 0 1012 377" fill="none" xmlns="http://www.w3.org/2000/svg">
<path fill-rule="evenodd" clip-rule="evenodd" d="M254.135 186.068C254.135 206.954 237.203 223.885 216.317 223.885C195.431 223.885 178.499 206.954 178.499 186.068C178.499 165.182 195.431 148.25 216.317 148.25C237.203 148.25 254.135 165.182 254.135 186.068ZM255.647 232.051C245.07 241.107 231.332 246.576 216.317 246.576C182.899 246.576 155.809 219.485 155.809 186.068C155.809 152.65 182.899 125.559 216.317 125.559C231.332 125.559 245.07 131.029 255.647 140.084V128.585H278.338V243.55H255.647V232.051Z" fill="black"/>
<path fill-rule="evenodd" clip-rule="evenodd" d="M416.75 114.965C423.016 114.965 428.096 109.886 428.096 103.62C428.096 97.3543 423.016 92.2748 416.75 92.2748C410.484 92.2748 405.405 97.3543 405.405 103.62C405.405 109.886 410.484 114.965 416.75 114.965ZM405.405 128.58V243.545H428.096V128.58H405.405Z" fill="black"/>
<path fill-rule="evenodd" clip-rule="evenodd" d="M1000.65 114.965C1006.92 114.965 1012 109.886 1012 103.62C1012 97.3543 1006.92 92.2748 1000.65 92.2748C994.389 92.2748 989.309 97.3543 989.309 103.62C989.309 109.886 994.389 114.965 1000.65 114.965ZM989.309 128.58V243.545H1012V128.58H989.309Z" fill="black"/>
<path fill-rule="evenodd" clip-rule="evenodd" d="M470.451 151.271V243.546H493.142V151.271H515.833V128.58H493.142V81.6866H470.451V128.58H447.761V151.271H470.451Z" fill="black"/>
<path fill-rule="evenodd" clip-rule="evenodd" d="M685.452 243.081L636.849 128.579H661.499L697.777 214.045L734.056 128.579H758.706L710.102 243.081L710.299 243.544H685.256L685.452 243.081Z" fill="black"/>
<path fill-rule="evenodd" clip-rule="evenodd" d="M869.806 81.6866H892.496V204.745L947.258 128.58H975.204L934.768 184.821L972.799 243.546H945.765L920.545 204.603L892.546 243.546L869.806 243.546V81.6866Z" fill="black"/>
<path d="M810.068 246.576C795.95 246.576 784.31 243.007 775.148 235.871C765.987 228.734 760.73 219.27 759.378 207.478H783.484C784.685 212.753 787.539 217.33 792.045 221.209C796.551 224.933 802.483 226.794 809.842 226.794C817.052 226.794 822.308 225.243 825.612 222.14C828.917 219.037 830.569 215.468 830.569 211.435C830.569 205.539 828.241 201.583 823.585 199.566C819.079 197.394 812.771 195.454 804.661 193.748C798.353 192.351 792.045 190.489 785.737 188.162C779.579 185.835 774.397 182.577 770.192 178.388C766.137 174.044 764.109 168.225 764.109 160.933C764.109 150.849 767.864 142.471 775.374 135.799C782.883 128.973 793.396 125.559 806.914 125.559C819.38 125.559 829.442 128.662 837.102 134.868C844.912 141.074 849.493 149.84 850.845 161.166H827.865C827.114 156.201 824.862 152.323 821.107 149.53C817.502 146.737 812.621 145.341 806.463 145.341C800.456 145.341 795.8 146.66 792.495 149.297C789.191 151.78 787.539 155.038 787.539 159.072C787.539 163.106 789.792 166.286 794.298 168.613C798.954 170.941 805.036 173.035 812.546 174.897C820.055 176.604 826.964 178.62 833.272 180.948C839.73 183.12 844.912 186.378 848.817 190.722C852.722 195.066 854.674 201.427 854.674 209.805C854.825 220.356 850.845 229.122 842.734 236.103C834.774 243.085 823.885 246.576 810.068 246.576Z" fill="black"/>
<path fill-rule="evenodd" clip-rule="evenodd" d="M2.30821e-05 0H30.2541V316.203L145.985 224.746L163.844 246.963L0 376.443L2.30821e-05 0Z" fill="black"/>
<path fill-rule="evenodd" clip-rule="evenodd" d="M388.765 135.164C379.865 130.016 369.532 127.069 358.511 127.069C344.202 127.069 331.053 132.036 320.694 140.34V128.582H298.003V243.547H320.694V187.577C320.694 166.691 337.625 149.76 358.511 149.76C362.257 149.76 365.875 150.304 369.292 151.319C376.336 153.026 382.906 156.01 388.765 160.025V135.164Z" fill="black"/>
<path fill-rule="evenodd" clip-rule="evenodd" d="M580.879 223.885C601.765 223.885 618.697 206.954 618.697 186.068C618.697 165.182 601.765 148.25 580.879 148.25C559.993 148.25 543.061 165.182 543.061 186.068C543.061 206.954 559.993 223.885 580.879 223.885ZM580.879 246.576C614.297 246.576 641.387 219.485 641.387 186.068C641.387 152.65 614.297 125.559 580.879 125.559C547.461 125.559 520.371 152.65 520.371 186.068C520.371 219.485 547.461 246.576 580.879 246.576Z" fill="black"/>
</svg>
