<svg width="1039" height="255" viewBox="0 0 1039 255" fill="none" xmlns="http://www.w3.org/2000/svg">
<path fill-rule="evenodd" clip-rule="evenodd" d="M927.195 0C961.088 0 995.011 7.67309 1012.35 23.0182L1012.29 22.9878C1029.66 38.3644 1038.36 60.1338 1038.36 88.2982V167.919C1038.36 195.688 1029.6 217.153 1012.17 232.286C994.677 247.418 960.754 255 926.832 255C892.939 255 856.986 254.757 837.524 232.621C816.878 209.117 824.498 191.204 832.827 171.622C837.781 159.978 842.986 147.744 842.646 133.391C842.335 120.376 836.55 111.162 830.756 101.937C822.43 88.676 814.087 75.3919 821.972 50.7565C836.856 4.23216 887.27 0 927.195 0ZM973.547 203.604C981.338 195.931 985.249 182.777 985.249 164.052V92.1956C985.249 73.0748 981.369 59.586 973.547 51.6695C965.726 43.753 944.111 39.8566 925.346 39.8566C906.582 39.8566 884.967 43.7834 877.145 51.6695C869.355 59.5556 865.444 73.0748 865.444 92.1967V164.052C865.444 182.747 869.324 195.931 877.145 203.604C884.967 211.276 906.582 215.113 925.346 215.113C944.111 215.113 965.726 211.276 973.547 203.604ZM105.667 253.599C85.3913 253.599 66.1425 250.462 47.8909 244.19C29.6393 237.918 13.8657 228.205 0.570312 215.022L18.7004 179.52C31.8157 190.633 45.8967 198.976 60.9454 204.517C75.9942 210.089 93.1576 212.829 112.406 212.829C127.757 212.829 139.451 210.058 147.429 204.517C155.406 198.945 159.425 190.937 159.425 180.433C159.425 170.995 154.772 164.113 145.434 159.911C136.127 155.679 116.395 150.99 86.2983 145.844C57.4095 141.308 37.0128 133.97 25.1376 123.77C13.2625 113.57 7.30915 98.3156 7.30915 77.9156C7.30915 55.9027 15.5279 37.634 31.9058 23.141C48.314 8.6784 72.277 1.40093 103.824 1.40093C122.892 1.40093 141.053 4.53753 158.428 10.8401C175.742 17.1123 189.432 25.7896 199.463 36.933L183.478 70.8827C171.18 61.5347 158.307 54.4105 144.891 49.5088C131.474 44.6365 117.483 42.1705 102.948 42.1705C89.4111 42.1705 78.7739 44.6061 70.9772 49.448C63.1812 54.2884 59.2832 61.7782 59.2832 71.9173C59.2832 81.4174 64.0582 88.2373 73.5768 92.3782C83.0954 96.5191 103.22 101.3 133.952 106.658C162.447 111.591 182.512 119.294 194.206 129.799C205.9 140.273 211.732 155.71 211.732 176.079C211.732 200.559 202.334 219.589 183.6 233.169C164.834 246.748 138.877 253.538 105.667 253.538V253.599ZM371.052 254.999C334.419 254.999 299.731 247.417 283.571 232.255C267.411 217.062 259.331 193.616 259.331 161.799V4.20278H311.82V157.445C311.82 177.235 315.313 191.302 322.33 199.554C329.347 207.835 351.096 211.946 371.083 211.946C391.071 211.946 412.82 207.805 419.836 199.554C424.282 194.326 425.411 186.544 426.846 176.649C427.677 170.926 428.61 164.496 430.347 157.445C432.082 150.417 438.271 141.371 444.613 132.099C452.588 120.441 460.807 108.427 460.722 99.6252C460.637 90.8157 452.425 79.3764 444.495 68.3295C438.199 59.5588 432.08 51.0357 430.347 44.2714C427.856 34.5887 430.347 4.20278 430.347 4.20278H482.836C482.836 4.20278 483.383 34.2539 482.836 44.2714C482.498 50.3127 481.282 58.9806 480.026 67.9391C478.459 79.1172 476.828 90.7464 476.76 98.2852C476.691 107.365 478.422 121.524 480.067 134.975L480.068 134.976C481.313 145.16 482.508 154.938 482.836 161.799C484.355 193.555 474.755 217.092 458.595 232.255C442.405 247.417 407.746 254.999 371.113 254.999H371.052ZM688.018 250.774C688.018 250.774 675.568 236.53 665.466 203.395C661.795 191.342 660.586 181.169 659.471 171.788C658.028 159.643 656.742 148.826 650.474 136.981C645.376 127.34 637.545 121.933 628.637 115.783C621.313 110.726 613.262 105.166 605.4 96.3375C589.905 78.9377 583.157 58.777 583.157 58.777V250.774H537.719V4.22691H609.885C609.885 4.22691 632.017 39.1094 641.868 60.3972C647.222 71.9646 649.034 82.3482 650.861 92.8127C652.843 104.17 654.842 115.621 661.401 128.782C672.432 150.934 679.356 156.483 687.523 163.029C691.677 166.358 696.154 169.945 701.654 176.105C710.862 186.418 714.747 196.83 714.747 196.83V4.22586H759.891V250.774H688.018Z" fill="black"/>
</svg>
